<svg width="529" height="331" viewBox="0 0 529 331" fill="none" xmlns="http://www.w3.org/2000/svg" xmlns:xlink="http://www.w3.org/1999/xlink">
<g clip-path="url(#clip0_249_175)">
<rect width="529" height="331" fill="#E7EFC7"/>
<g clip-path="url(#clip1_249_175)">
<rect width="626.301" height="652.397" transform="translate(-57.2842 -160.199)"/>
<path d="M-57.2842 -160.199C149.395 -160.199 356.075 -160.199 569.017 -160.199C569.017 55.0924 569.017 270.384 569.017 492.199C362.338 492.199 155.658 492.199 -57.2842 492.199C-57.2842 276.908 -57.2842 61.6164 -57.2842 -160.199Z" fill="#E7EFC7"/>
<path d="M395.302 83.6498C396.555 83.6566 397.808 83.6634 399.099 83.6705C400.451 83.6747 401.803 83.6789 403.197 83.6832C405.332 83.6996 405.332 83.6996 407.51 83.7164C409.652 83.7252 409.652 83.7252 411.838 83.7342C415.379 83.7496 418.921 83.7711 422.463 83.7979C421.655 91.0486 420.602 98.2264 419.445 105.425C415.427 130.577 413.252 154.848 413.694 180.353C414.302 179.739 414.909 179.125 415.534 178.492C425.968 168.397 433.825 166.491 448.136 166.861C454.19 167.473 456.695 168.359 461.293 172.524C469.609 183.852 469.833 195.291 468.809 209.058C465.833 227.507 458.072 252.863 445.009 266.469C442.779 266.583 440.544 266.609 438.311 266.597C436.959 266.592 435.606 266.588 434.213 266.584C432.79 266.573 431.366 266.562 429.9 266.551C428.472 266.545 427.044 266.539 425.572 266.533C422.03 266.517 418.489 266.496 414.947 266.469C416.896 261.209 419.272 256.625 422.071 251.79C426.025 244.769 429.351 237.624 432.327 230.098C432.685 229.199 433.043 228.301 433.412 227.375C437.031 217.969 441.387 206.63 437.494 196.744C436.874 195.735 436.874 195.735 436.241 194.705C429.663 194.294 425.534 194.876 419.957 198.62C414.69 204.404 413.401 208.654 413.484 216.52C413.958 223.219 415.151 229.837 416.2 236.459C408.346 236.459 400.492 236.459 392.4 236.459C390.081 229.212 388.838 222.755 387.859 215.256C387.694 214.004 387.529 212.751 387.359 211.461C385.916 199.688 385.857 188.298 386.137 176.438C379.11 176.438 372.083 176.438 364.843 176.438C364.598 171.766 364.354 167.094 364.109 162.422C364.001 158.066 364.001 158.066 361.085 155.562C356.701 155.018 356.701 155.018 352.317 155.562C348.343 161.771 349.057 167.869 349.812 175.134C352.382 185.612 357.442 194.879 362.338 204.328C370.585 220.31 378.723 237.6 374.179 256.23C373.298 258.559 373.298 258.559 371.106 262.555C370.408 263.873 369.711 265.192 368.992 266.551C363.176 274.247 355.353 280.099 346.054 282.127C334.625 283.462 325.212 281.688 315.668 274.894C306.765 267.417 302.945 258.439 300.96 246.897C300.96 242.161 300.96 237.424 300.96 232.544C310.054 232.544 319.148 232.544 328.517 232.544C328.762 236.792 329.007 241.039 329.251 245.287C329.726 249.15 330.232 251.51 332.275 254.726C336.095 256.716 339.343 256.338 343.549 256.031C346.825 253.642 347.269 252.234 348.559 248.202C349.795 232.114 340.38 217.751 333.542 203.95C330.96 198.728 328.45 193.478 326.012 188.181C325.465 187.011 324.917 185.84 324.353 184.634C319.724 173.399 318.73 159.685 322.064 147.891C326.287 139.078 334.537 132.281 343.338 128.778C354.757 126.184 365.925 127.478 376.116 133.38C380.146 136.266 382.171 138.274 384.885 142.514C385.226 139.551 385.565 136.588 385.902 133.625C386.066 132.197 386.066 132.197 386.232 130.74C386.975 124.184 387.674 117.625 388.349 111.061C388.514 109.469 388.679 107.876 388.849 106.236C389.18 103.032 389.506 99.8275 389.828 96.6225C390.057 94.412 390.057 94.412 390.291 92.1567C390.426 90.8288 390.561 89.5009 390.7 88.1328C391.296 84.1001 391.373 83.8504 395.302 83.6498Z" fill="#AEC8A4"/>
<path d="M147.795 74.2617C158.095 80.4268 164.771 88.7787 168.184 100.76C168.991 108.21 168.533 115.442 168.184 122.942C159.09 122.942 149.996 122.942 140.627 122.942C140.321 116.061 140.321 116.061 140.015 109.18C139.365 104.609 138.789 102.619 135.617 99.4555C131.721 98.8637 129.296 98.5653 126.021 101.005C122.411 106.092 123.768 113.036 124.343 119.027C126.507 130.913 132.543 141.481 138.045 151.991C146.545 168.3 153.039 184.927 150.648 203.839C146.881 215.595 141.341 223.421 130.949 229.237C119.706 234.699 110.285 235.723 98.4299 231.811C86.5893 226.733 81.043 219.37 75.6531 207.453C72.2758 198.822 72.8972 190.951 72.9864 181.658C82.4937 181.658 92.0009 181.658 101.796 181.658C102 185.862 102.204 190.067 102.408 194.272C103.084 198.855 104.176 201.442 106.807 205.144C110.669 207.155 113.832 206.837 118.08 206.449C121.869 202.633 122.978 198.757 123.404 193.319C122.541 179.159 115.693 167.239 109.39 154.991C88.8831 115.049 88.8831 115.049 93.8843 96.2343C98.1207 85.5408 104.36 78.363 114.322 73.3596C125.32 68.9767 137.069 69.0281 147.795 74.2617Z" fill="#AEC8A4"/>
<path d="M282.171 163.39C291.678 163.39 301.186 163.39 310.981 163.39C311.362 182.456 311.362 182.456 308.476 190.791C307.834 192.645 307.834 192.645 307.179 194.537C304.738 201.088 302.325 206.662 297.985 212.076C294.916 216.015 294.916 216.015 294.854 221.209C295.215 222.797 295.577 224.385 295.95 226.021C295.95 230.757 295.95 235.493 295.95 240.373C286.856 240.373 277.762 240.373 268.392 240.373C268.082 237.198 267.772 234.022 267.453 230.75C265.978 217.76 263.024 206.353 253.361 197.315C248.133 193.929 241.821 193.61 235.825 194.705C231.436 197.878 229.869 199.692 228.779 205.144C229.38 209.193 229.38 209.193 231.676 212.809C238.074 217.085 244.698 216.519 252.109 215.582C253.803 214.764 255.479 213.903 257.119 212.973C258.359 212.973 259.599 212.973 260.877 212.973C263.553 221.069 265.092 227.882 264.635 236.459C253.327 241.599 238.478 242.89 226.509 239.15C217.239 234.507 208.752 226.113 205.205 215.995C202.836 205.694 204.338 197.224 209.52 188.181C214.799 179.796 222.789 173.6 231.94 170.383C246.3 167.825 258.488 170.387 270.536 178.813C277.973 184.654 277.973 184.654 279.666 188.181C281.73 183.881 281.398 179.055 281.623 174.318C281.804 170.712 281.985 167.106 282.171 163.39Z" fill="#AEC8A4"/>
<path d="M165.679 129.466C168.378 129.021 168.378 129.021 171.678 129.083C172.857 129.096 174.035 129.109 175.25 129.122C177.1 129.171 177.1 129.171 178.988 129.221C180.231 129.239 181.475 129.256 182.756 129.275C185.832 129.321 188.908 129.385 191.984 129.466C191.742 130.3 191.501 131.134 191.253 131.993C189.348 138.589 187.464 145.189 185.642 151.81C185.039 153.995 185.039 153.995 184.424 156.224C183.104 161.2 181.912 166.211 180.71 171.219C187.737 171.219 194.764 171.219 202.005 171.219C202.005 178.97 202.005 186.72 202.005 194.705C194.151 194.705 186.297 194.705 178.205 194.705C178.769 209.39 179.526 224.782 189.845 235.939C195.523 240.784 201.117 242.798 208.268 244.288C208.268 256.344 208.268 268.4 208.268 280.822C191.031 278.578 177.61 271.586 166.428 257.682C149.415 232.551 150.149 196.072 154.64 166.897C159.274 139.474 159.274 139.474 165.679 129.466Z" fill="#AEC8A4"/>
<path d="M404.724 28.4034C405.394 28.4034 405.987 28.5709 406.504 28.9058C407.03 29.2407 407.446 29.7 407.752 30.2836C408.059 30.8578 408.212 31.5276 408.212 32.293C408.212 33.0585 408.059 33.7379 407.752 34.3311C407.446 34.9148 407.035 35.3741 406.518 35.709C406.001 36.0439 405.418 36.2113 404.767 36.2113C404.403 36.2113 404.059 36.1539 403.734 36.0391C403.408 35.9243 403.121 35.776 402.872 35.5942C402.624 35.4028 402.418 35.2019 402.255 34.9913C402.102 34.7808 402.006 34.5847 401.968 34.4029L402.356 34.2163V38.2207C402.356 38.4312 402.284 38.6035 402.14 38.7374C402.006 38.8809 401.839 38.9527 401.638 38.9527C401.428 38.9527 401.255 38.8809 401.121 38.7374C400.987 38.6035 400.92 38.4312 400.92 38.2207V29.2359C400.92 29.035 400.987 28.8627 401.121 28.7192C401.255 28.5757 401.428 28.5039 401.638 28.5039C401.839 28.5039 402.006 28.5757 402.14 28.7192C402.284 28.8627 402.356 29.035 402.356 29.2359V30.2262L402.126 30.0971C402.155 29.9153 402.246 29.7287 402.399 29.5373C402.552 29.3364 402.743 29.1498 402.973 28.9775C403.212 28.8053 403.48 28.6666 403.777 28.5613C404.083 28.4561 404.399 28.4034 404.724 28.4034ZM404.566 29.7239C404.107 29.7239 403.705 29.8387 403.36 30.0684C403.026 30.2884 402.762 30.5898 402.571 30.9726C402.38 31.3553 402.284 31.7955 402.284 32.293C402.284 32.781 402.38 33.226 402.571 33.6278C402.762 34.0201 403.026 34.3311 403.36 34.5608C403.705 34.7808 404.107 34.8909 404.566 34.8909C405.016 34.8909 405.408 34.7808 405.743 34.5608C406.078 34.3311 406.341 34.0201 406.532 33.6278C406.733 33.226 406.834 32.781 406.834 32.293C406.834 31.805 406.733 31.3697 406.532 30.9869C406.341 30.5946 406.078 30.2884 405.743 30.0684C405.408 29.8387 405.016 29.7239 404.566 29.7239ZM413.638 28.4034C414.299 28.4034 414.81 28.547 415.174 28.834C415.538 29.1115 415.791 29.4895 415.935 29.9679C416.088 30.4463 416.164 30.9726 416.164 31.5467V35.3502C416.164 35.5607 416.093 35.7377 415.949 35.8812C415.815 36.0152 415.648 36.0822 415.447 36.0822C415.236 36.0822 415.064 36.0152 414.93 35.8812C414.796 35.7377 414.729 35.5607 414.729 35.3502V31.5467C414.729 31.2118 414.681 30.9056 414.586 30.6281C414.499 30.3506 414.342 30.1306 414.112 29.9679C413.892 29.8052 413.581 29.7239 413.179 29.7239C412.806 29.7239 412.471 29.8052 412.174 29.9679C411.887 30.1306 411.662 30.3506 411.5 30.6281C411.347 30.9056 411.27 31.2118 411.27 31.5467V35.3502C411.27 35.5607 411.198 35.7377 411.055 35.8812C410.921 36.0152 410.753 36.0822 410.552 36.0822C410.342 36.0822 410.17 36.0152 410.036 35.8812C409.902 35.7377 409.835 35.5607 409.835 35.3502V26.1931C409.835 25.9826 409.902 25.8104 410.036 25.6764C410.17 25.5329 410.342 25.4611 410.552 25.4611C410.753 25.4611 410.921 25.5329 411.055 25.6764C411.198 25.8104 411.27 25.9826 411.27 26.1931V30.1114L411.012 30.2549C411.079 30.0444 411.189 29.8291 411.342 29.6091C411.505 29.389 411.701 29.1881 411.93 29.0063C412.17 28.8245 412.433 28.6809 412.72 28.5757C413.007 28.4608 413.313 28.4034 413.638 28.4034ZM425.394 32.3074C425.394 33.0729 425.227 33.7522 424.892 34.3455C424.557 34.9291 424.103 35.3884 423.528 35.7233C422.954 36.0582 422.308 36.2257 421.591 36.2257C420.873 36.2257 420.227 36.0582 419.653 35.7233C419.079 35.3884 418.62 34.9291 418.275 34.3455C417.94 33.7522 417.773 33.0729 417.773 32.3074C417.773 31.5323 417.94 30.853 418.275 30.2693C418.62 29.676 419.079 29.212 419.653 28.8771C420.227 28.5326 420.873 28.3604 421.591 28.3604C422.308 28.3604 422.954 28.5326 423.528 28.8771C424.103 29.212 424.557 29.676 424.892 30.2693C425.227 30.853 425.394 31.5323 425.394 32.3074ZM423.959 32.3074C423.959 31.7811 423.854 31.3266 423.643 30.9439C423.433 30.5516 423.146 30.2454 422.782 30.0253C422.428 29.7957 422.031 29.6808 421.591 29.6808C421.151 29.6808 420.749 29.7957 420.385 30.0253C420.022 30.2454 419.735 30.5516 419.524 30.9439C419.314 31.3266 419.208 31.7811 419.208 32.3074C419.208 32.8145 419.314 33.2642 419.524 33.6565C419.735 34.0488 420.022 34.355 420.385 34.5751C420.749 34.7952 421.151 34.9052 421.591 34.9052C422.031 34.9052 422.428 34.7952 422.782 34.5751C423.146 34.355 423.433 34.0488 423.643 33.6565C423.854 33.2642 423.959 32.8145 423.959 32.3074ZM426.918 28.6187H430.291C430.483 28.6187 430.641 28.6857 430.765 28.8197C430.899 28.9441 430.966 29.1019 430.966 29.2933C430.966 29.4751 430.899 29.6282 430.765 29.7526C430.641 29.877 430.483 29.9392 430.291 29.9392H426.918C426.727 29.9392 426.564 29.877 426.43 29.7526C426.306 29.6186 426.244 29.4608 426.244 29.279C426.244 29.0876 426.306 28.9297 426.43 28.8053C426.564 28.6809 426.727 28.6187 426.918 28.6187ZM428.425 26.7529C428.636 26.7529 428.808 26.8246 428.942 26.9682C429.076 27.1021 429.143 27.2744 429.143 27.4849V34.1445C429.143 34.3168 429.172 34.4555 429.229 34.5608C429.287 34.666 429.363 34.7378 429.459 34.7761C429.564 34.8143 429.669 34.8335 429.775 34.8335C429.88 34.8335 429.971 34.8143 430.047 34.7761C430.133 34.7378 430.234 34.7186 430.349 34.7186C430.464 34.7186 430.569 34.7713 430.664 34.8765C430.76 34.9818 430.808 35.1253 430.808 35.3071C430.808 35.5367 430.684 35.7233 430.435 35.8669C430.186 36.0104 429.918 36.0822 429.631 36.0822C429.468 36.0822 429.277 36.0678 429.057 36.0391C428.837 36.0104 428.622 35.9386 428.411 35.8238C428.21 35.709 428.043 35.5272 427.909 35.2784C427.775 35.0201 427.708 34.6612 427.708 34.2019V27.4849C427.708 27.2744 427.775 27.1021 427.909 26.9682C428.052 26.8246 428.225 26.7529 428.425 26.7529ZM439.719 32.3074C439.719 33.0729 439.552 33.7522 439.217 34.3455C438.882 34.9291 438.427 35.3884 437.853 35.7233C437.279 36.0582 436.633 36.2257 435.916 36.2257C435.198 36.2257 434.552 36.0582 433.978 35.7233C433.404 35.3884 432.945 34.9291 432.6 34.3455C432.265 33.7522 432.098 33.0729 432.098 32.3074C432.098 31.5323 432.265 30.853 432.6 30.2693C432.945 29.676 433.404 29.212 433.978 28.8771C434.552 28.5326 435.198 28.3604 435.916 28.3604C436.633 28.3604 437.279 28.5326 437.853 28.8771C438.427 29.212 438.882 29.676 439.217 30.2693C439.552 30.853 439.719 31.5323 439.719 32.3074ZM438.284 32.3074C438.284 31.7811 438.179 31.3266 437.968 30.9439C437.757 30.5516 437.47 30.2454 437.107 30.0253C436.753 29.7957 436.356 29.6808 435.916 29.6808C435.475 29.6808 435.074 29.7957 434.71 30.0253C434.346 30.2454 434.059 30.5516 433.849 30.9439C433.638 31.3266 433.533 31.7811 433.533 32.3074C433.533 32.8145 433.638 33.2642 433.849 33.6565C434.059 34.0488 434.346 34.355 434.71 34.5751C435.074 34.7952 435.475 34.9052 435.916 34.9052C436.356 34.9052 436.753 34.7952 437.107 34.5751C437.47 34.355 437.757 34.0488 437.968 33.6565C438.179 33.2642 438.284 32.8145 438.284 32.3074ZM404.724 40.3604C405.394 40.3604 405.987 40.5278 406.504 40.8627C407.03 41.1976 407.446 41.6617 407.752 42.2549C408.059 42.8386 408.212 43.5132 408.212 44.2787C408.212 45.0442 408.059 45.7235 407.752 46.3168C407.446 46.91 407.035 47.3789 406.518 47.7233C406.001 48.0582 405.418 48.2257 404.767 48.2257C404.403 48.2257 404.059 48.1683 403.734 48.0534C403.408 47.9291 403.121 47.776 402.872 47.5942C402.624 47.4028 402.418 47.2019 402.255 46.9913C402.102 46.7808 402.006 46.5847 401.968 46.4029L402.356 46.2163V47.465C402.356 47.6659 402.284 47.8382 402.14 47.9817C402.006 48.1156 401.839 48.1826 401.638 48.1826C401.428 48.1826 401.255 48.1156 401.121 47.9817C400.987 47.8477 400.92 47.6755 400.92 47.465V38.1931C400.92 37.9826 400.987 37.8104 401.121 37.6764C401.255 37.5329 401.428 37.4611 401.638 37.4611C401.839 37.4611 402.006 37.5329 402.14 37.6764C402.284 37.8104 402.356 37.9826 402.356 38.1931V42.2262L402.126 42.0971C402.155 41.9153 402.246 41.7287 402.399 41.5373C402.552 41.3364 402.743 41.145 402.973 40.9632C403.212 40.7814 403.48 40.6379 403.777 40.5326C404.083 40.4178 404.399 40.3604 404.724 40.3604ZM404.566 41.6808C404.107 41.6808 403.705 41.7957 403.36 42.0253C403.026 42.2549 402.762 42.5659 402.571 42.9582C402.38 43.341 402.284 43.7811 402.284 44.2787C402.284 44.7762 402.38 45.226 402.571 45.6278C402.762 46.0201 403.026 46.3311 403.36 46.5608C403.705 46.7904 404.107 46.9052 404.566 46.9052C405.016 46.9052 405.408 46.7904 405.743 46.5608C406.078 46.3311 406.341 46.0154 406.532 45.6135C406.733 45.2116 406.834 44.7667 406.834 44.2787C406.834 43.7811 406.733 43.341 406.532 42.9582C406.341 42.5659 406.078 42.2549 405.743 42.0253C405.408 41.7957 405.016 41.6808 404.566 41.6808ZM417.069 44.3074C417.069 45.0729 416.901 45.7522 416.566 46.3455C416.231 46.9291 415.777 47.3884 415.203 47.7233C414.629 48.0582 413.983 48.2257 413.265 48.2257C412.547 48.2257 411.902 48.0582 411.328 47.7233C410.753 47.3884 410.294 46.9291 409.95 46.3455C409.615 45.7522 409.447 45.0729 409.447 44.3074C409.447 43.5323 409.615 42.853 409.95 42.2693C410.294 41.676 410.753 41.212 411.328 40.8771C411.902 40.5326 412.547 40.3604 413.265 40.3604C413.983 40.3604 414.629 40.5326 415.203 40.8771C415.777 41.212 416.231 41.676 416.566 42.2693C416.901 42.853 417.069 43.5323 417.069 44.3074ZM415.633 44.3074C415.633 43.7811 415.528 43.3266 415.318 42.9439C415.107 42.5516 414.82 42.2454 414.456 42.0253C414.102 41.7957 413.705 41.6808 413.265 41.6808C412.825 41.6808 412.423 41.7957 412.06 42.0253C411.696 42.2454 411.409 42.5516 411.198 42.9439C410.988 43.3266 410.883 43.7811 410.883 44.3074C410.883 44.8145 410.988 45.2642 411.198 45.6565C411.409 46.0488 411.696 46.355 412.06 46.5751C412.423 46.7952 412.825 46.9052 413.265 46.9052C413.705 46.9052 414.102 46.7952 414.456 46.5751C414.82 46.355 415.107 46.0488 415.318 45.6565C415.528 45.2642 415.633 44.8145 415.633 44.3074ZM425.927 44.3074C425.927 45.0729 425.759 45.7522 425.425 46.3455C425.09 46.9291 424.635 47.3884 424.061 47.7233C423.487 48.0582 422.841 48.2257 422.123 48.2257C421.406 48.2257 420.76 48.0582 420.186 47.7233C419.612 47.3884 419.152 46.9291 418.808 46.3455C418.473 45.7522 418.306 45.0729 418.306 44.3074C418.306 43.5323 418.473 42.853 418.808 42.2693C419.152 41.676 419.612 41.212 420.186 40.8771C420.76 40.5326 421.406 40.3604 422.123 40.3604C422.841 40.3604 423.487 40.5326 424.061 40.8771C424.635 41.212 425.09 41.676 425.425 42.2693C425.759 42.853 425.927 43.5323 425.927 44.3074ZM424.492 44.3074C424.492 43.7811 424.386 43.3266 424.176 42.9439C423.965 42.5516 423.678 42.2454 423.315 42.0253C422.961 41.7957 422.564 41.6808 422.123 41.6808C421.683 41.6808 421.281 41.7957 420.918 42.0253C420.554 42.2454 420.267 42.5516 420.057 42.9439C419.846 43.3266 419.741 43.7811 419.741 44.3074C419.741 44.8145 419.846 45.2642 420.057 45.6565C420.267 46.0488 420.554 46.355 420.918 46.5751C421.281 46.7952 421.683 46.9052 422.123 46.9052C422.564 46.9052 422.961 46.7952 423.315 46.5751C423.678 46.355 423.965 46.0488 424.176 45.6565C424.386 45.2642 424.492 44.8145 424.492 44.3074ZM427.451 40.6187H430.824C431.015 40.6187 431.173 40.6857 431.298 40.8197C431.432 40.9441 431.498 41.1019 431.498 41.2933C431.498 41.4751 431.432 41.6282 431.298 41.7526C431.173 41.877 431.015 41.9392 430.824 41.9392H427.451C427.26 41.9392 427.097 41.877 426.963 41.7526C426.839 41.6186 426.776 41.4608 426.776 41.279C426.776 41.0876 426.839 40.9297 426.963 40.8053C427.097 40.6809 427.26 40.6187 427.451 40.6187ZM428.958 38.7529C429.169 38.7529 429.341 38.8246 429.475 38.9682C429.609 39.1021 429.676 39.2744 429.676 39.4849V46.1445C429.676 46.3168 429.704 46.4555 429.762 46.5608C429.819 46.666 429.896 46.7378 429.991 46.7761C430.097 46.8143 430.202 46.8335 430.307 46.8335C430.412 46.8335 430.503 46.8143 430.58 46.7761C430.666 46.7378 430.767 46.7186 430.881 46.7186C430.996 46.7186 431.101 46.7713 431.197 46.8765C431.293 46.9818 431.341 47.1253 431.341 47.3071C431.341 47.5367 431.216 47.7233 430.967 47.8669C430.719 48.0104 430.451 48.0822 430.164 48.0822C430.001 48.0822 429.81 48.0678 429.59 48.0391C429.37 48.0104 429.154 47.9386 428.944 47.8238C428.743 47.709 428.575 47.5272 428.441 47.2784C428.307 47.0201 428.24 46.6612 428.24 46.2019V39.4849C428.24 39.2744 428.307 39.1021 428.441 38.9682C428.585 38.8246 428.757 38.7529 428.958 38.7529ZM436.891 40.4034C437.552 40.4034 438.064 40.547 438.427 40.834C438.791 41.1115 439.044 41.4895 439.188 41.9679C439.341 42.4463 439.418 42.9726 439.418 43.5467V47.3502C439.418 47.5607 439.346 47.7377 439.202 47.8812C439.068 48.0152 438.901 48.0822 438.7 48.0822C438.489 48.0822 438.317 48.0152 438.183 47.8812C438.049 47.7377 437.982 47.5607 437.982 47.3502V43.5467C437.982 43.2118 437.934 42.9056 437.839 42.6281C437.753 42.3506 437.595 42.1306 437.365 41.9679C437.145 41.8052 436.834 41.7239 436.432 41.7239C436.059 41.7239 435.724 41.8052 435.427 41.9679C435.14 42.1306 434.916 42.3506 434.753 42.6281C434.6 42.9056 434.523 43.2118 434.523 43.5467V47.3502C434.523 47.5607 434.451 47.7377 434.308 47.8812C434.174 48.0152 434.007 48.0822 433.806 48.0822C433.595 48.0822 433.423 48.0152 433.289 47.8812C433.155 47.7377 433.088 47.5607 433.088 47.3502V38.1931C433.088 37.9826 433.155 37.8104 433.289 37.6764C433.423 37.5329 433.595 37.4611 433.806 37.4611C434.007 37.4611 434.174 37.5329 434.308 37.6764C434.451 37.8104 434.523 37.9826 434.523 38.1931V42.1114L434.265 42.2549C434.332 42.0444 434.442 41.8291 434.595 41.6091C434.758 41.389 434.954 41.1881 435.183 41.0063C435.423 40.8245 435.686 40.6809 435.973 40.5757C436.26 40.4608 436.566 40.4034 436.891 40.4034Z" fill="#332C23"/>
</g>
</g>
<defs>
<clipPath id="clip0_249_175">
<rect width="529" height="331" fill="white"/>
</clipPath>
<clipPath id="clip1_249_175">
<rect width="626.301" height="652.397" fill="white" transform="translate(-57.2842 -160.199)"/>
</clipPath>
</defs>
</svg>
