<svg width="360" height="267" viewBox="0 0 360 267" fill="none" xmlns="http://www.w3.org/2000/svg">
<g filter="url(#filter0_d_249_183)">
<rect x="66.7697" y="2.5" width="53.1069" height="34.6197" rx="17.3098" fill="#FAD9CE" stroke="#622B54" stroke-width="5"/>
<mask id="path-2-inside-1_249_183" fill="white">
<path d="M331.914 18.4893C331.914 19.9479 333.096 21.1304 334.555 21.1304V21.1304C336.013 21.1304 337.196 22.3128 337.196 23.7715V29.9346C337.196 34.797 333.254 38.7388 328.392 38.7388H309.903C305.041 38.7388 301.099 34.797 301.099 29.9346V23.7715C301.099 22.3128 302.282 21.1304 303.74 21.1304V21.1304C305.199 21.1304 306.381 19.9479 306.381 18.4893V17.1685C306.381 14.9804 308.155 13.2065 310.343 13.2065H327.952C330.14 13.2065 331.914 14.9804 331.914 17.1685V18.4893Z"/>
</mask>
<path d="M331.914 18.4893C331.914 19.9479 333.096 21.1304 334.555 21.1304V21.1304C336.013 21.1304 337.196 22.3128 337.196 23.7715V29.9346C337.196 34.797 333.254 38.7388 328.392 38.7388H309.903C305.041 38.7388 301.099 34.797 301.099 29.9346V23.7715C301.099 22.3128 302.282 21.1304 303.74 21.1304V21.1304C305.199 21.1304 306.381 19.9479 306.381 18.4893V17.1685C306.381 14.9804 308.155 13.2065 310.343 13.2065H327.952C330.14 13.2065 331.914 14.9804 331.914 17.1685V18.4893Z" fill="#FAD9CE"/>
<path d="M337.196 23.7715H332.196V29.9346H337.196H342.196V23.7715H337.196ZM328.392 38.7388V33.7388H309.903V38.7388V43.7388H328.392V38.7388ZM301.099 29.9346H306.099V23.7715H301.099H296.099V29.9346H301.099ZM306.381 18.4893H311.381V17.1685H306.381H301.381V18.4893H306.381ZM310.343 13.2065V18.2065H327.952V13.2065V8.20654H310.343V13.2065ZM331.914 17.1685H326.914V18.4893H331.914H336.914V17.1685H331.914ZM327.952 13.2065V18.2065C327.378 18.2065 326.914 17.7418 326.914 17.1685H331.914H336.914C336.914 12.2189 332.901 8.20654 327.952 8.20654V13.2065ZM306.381 17.1685H311.381C311.381 17.7418 310.917 18.2065 310.343 18.2065V13.2065V8.20654C305.394 8.20654 301.381 12.2189 301.381 17.1685H306.381ZM303.74 21.1304V26.1304C307.96 26.1304 311.381 22.7093 311.381 18.4893H306.381H301.381C301.381 17.1865 302.438 16.1304 303.74 16.1304V21.1304ZM301.099 23.7715H306.099C306.099 25.0743 305.043 26.1304 303.74 26.1304V21.1304V16.1304C299.52 16.1304 296.099 19.5514 296.099 23.7715H301.099ZM309.903 38.7388V33.7388C307.802 33.7388 306.099 32.0356 306.099 29.9346H301.099H296.099C296.099 37.5584 302.28 43.7388 309.903 43.7388V38.7388ZM337.196 29.9346H332.196C332.196 32.0356 330.493 33.7388 328.392 33.7388V38.7388V43.7388C336.016 43.7388 342.196 37.5584 342.196 29.9346H337.196ZM334.555 21.1304V26.1304C333.252 26.1304 332.196 25.0743 332.196 23.7715H337.196H342.196C342.196 19.5514 338.775 16.1304 334.555 16.1304V21.1304ZM334.555 21.1304V16.1304C335.858 16.1304 336.914 17.1865 336.914 18.4893H331.914H326.914C326.914 22.7093 330.335 26.1304 334.555 26.1304V21.1304Z" fill="#622B54" mask="url(#path-2-inside-1_249_183)"/>
<rect x="21.369" y="9.04349" width="25.9338" height="19.7718" rx="3" fill="#E7AFC6" stroke="#622B54" stroke-width="4"/>
<mask id="path-5-inside-2_249_183" fill="white">
<path d="M287.894 20.8155C287.894 26.3383 292.371 30.8155 297.894 30.8155H336C341.523 30.8155 346 35.2926 346 40.8155V233C346 238.523 341.523 243 336 243H10C4.47716 243 0 238.523 0 233V30.2501C0 24.7272 4.47715 20.2501 10 20.2501H136.147C141.67 20.2501 146.147 15.7728 146.147 10.2501V10.2501C146.147 6.04752 149.554 2.64069 153.757 2.64069H277.894C283.416 2.64069 287.894 7.11784 287.894 12.6407V20.8155Z"/>
</mask>
<path d="M287.894 20.8155C287.894 26.3383 292.371 30.8155 297.894 30.8155H336C341.523 30.8155 346 35.2926 346 40.8155V233C346 238.523 341.523 243 336 243H10C4.47716 243 0 238.523 0 233V30.2501C0 24.7272 4.47715 20.2501 10 20.2501H136.147C141.67 20.2501 146.147 15.7728 146.147 10.2501V10.2501C146.147 6.04752 149.554 2.64069 153.757 2.64069H277.894C283.416 2.64069 287.894 7.11784 287.894 12.6407V20.8155Z" fill="#FDF2EA"/>
<path d="M287.894 20.8155L282.894 20.8155L282.894 20.8156L287.894 20.8155ZM336 243L336 248L336 248L336 243ZM10 243L10 248H10V243ZM287.894 20.8155L282.894 20.8156C282.894 29.0996 289.609 35.8155 297.894 35.8155V30.8155V25.8155C295.132 25.8155 292.894 23.5769 292.894 20.8154L287.894 20.8155ZM297.894 30.8155V35.8155H336V30.8155V25.8155H297.894V30.8155ZM346 40.8155H341V233H346H351V40.8155H346ZM346 233H341C341 235.761 338.761 238 336 238L336 243L336 248C344.284 248 351 241.284 351 233H346ZM336 243V238H10V243V248H336V243ZM10 243L10 238C7.23858 238 5 235.761 5 233H0H-5C-5 241.284 1.71573 248 10 248L10 243ZM0 233H5V30.2501H0H-5V233H0ZM10 20.2501V25.2501H136.147V20.2501V15.2501H10V20.2501ZM136.147 20.2501V25.2501C144.432 25.2501 151.147 18.5341 151.147 10.2502L146.147 10.2501L141.147 10.2499C141.147 13.0115 138.909 15.2501 136.147 15.2501V20.2501ZM153.757 2.64069V7.64069H277.894V2.64069V-2.35931H153.757V2.64069ZM287.894 12.6407H282.894V20.8155H287.894H292.894V12.6407H287.894ZM277.894 2.64069V7.64069C280.655 7.64069 282.894 9.87926 282.894 12.6407H287.894H292.894C292.894 4.35642 286.178 -2.35931 277.894 -2.35931V2.64069ZM146.147 10.2501H151.147C151.147 8.80894 152.316 7.64069 153.757 7.64069V2.64069V-2.35931C146.793 -2.35931 141.147 3.2861 141.147 10.2501H146.147ZM0 30.2501H5C5 27.4886 7.23857 25.2501 10 25.2501V20.2501V15.2501C1.71573 15.2501 -5 21.9658 -5 30.2501H0ZM336 30.8155V35.8155C338.761 35.8155 341 38.0541 341 40.8155H346H351C351 32.5312 344.284 25.8155 336 25.8155V30.8155Z" fill="#622B54" mask="url(#path-5-inside-2_249_183)"/>
<rect x="2" y="70.6741" width="342" height="149.196" fill="#F1BACE" stroke="#5C194D" stroke-width="4"/>
<path d="M152.75 57.9675C200.236 57.9675 238.732 96.4642 238.732 143.952C238.731 191.439 200.236 229.935 152.75 229.935C105.265 229.935 66.77 191.439 66.7697 143.952C66.7697 96.4644 105.265 57.9678 152.75 57.9675Z" fill="#FAF0E9" stroke="#622B54" stroke-width="5"/>
<path d="M151.43 71.5545C192.683 71.5547 226.025 104.022 226.025 143.951C226.025 183.88 192.683 216.348 151.43 216.348C110.177 216.348 76.8346 183.88 76.8346 143.951C76.8348 104.022 110.177 71.5545 151.43 71.5545Z" fill="#EDCEC4" stroke="#622B54" stroke-width="4"/>
<path d="M150.99 80.2393C184.192 80.2394 211.178 108.33 211.178 143.071C211.178 177.812 184.191 205.902 150.99 205.902C117.788 205.902 90.8017 177.812 90.8015 143.071C90.8015 108.33 117.788 80.2393 150.99 80.2393Z" fill="#5F1A54" stroke="#622B54" stroke-width="2"/>
<path d="M152.751 95.0872C178.278 95.0873 198.972 115.388 198.972 140.43C198.972 165.472 178.278 185.772 152.751 185.772C127.224 185.772 106.529 165.472 106.529 140.43C106.529 115.388 127.224 95.0872 152.751 95.0872ZM151.768 109.714C134.387 109.714 120.297 123.684 120.297 140.917C120.297 158.15 134.387 172.12 151.768 172.12C169.148 172.12 183.237 158.15 183.237 140.917C183.237 123.684 169.148 109.714 151.768 109.714Z" fill="#B58DB5"/>
<path d="M131.73 93.4459C134.754 93.4459 137.289 93.4491 139.452 93.6285C141.639 93.81 143.361 94.1672 144.749 94.8336C147.388 96.1007 149.122 98.6396 150.203 104.354C149.329 110.525 147.304 115.44 144.015 119.129C140.72 122.824 136.081 125.37 129.84 126.663C123.82 126.653 119.364 125.818 116.42 123.782C113.563 121.806 111.95 118.564 111.931 113.23C112.903 108.146 114.969 103.854 118.203 100.515C121.436 97.1772 125.891 94.7378 131.73 93.4459Z" fill="#AEC8A4" stroke="#622B54" stroke-width="2"/>
<path d="M161.953 141.87C163.449 141.87 164.675 141.873 165.717 141.968C166.784 142.064 167.571 142.251 168.181 142.572C169.291 143.155 170.127 144.353 170.666 147.426C170.229 150.745 169.235 153.347 167.66 155.28C166.09 157.206 163.881 158.544 160.874 159.237C157.913 159.226 155.839 158.769 154.506 157.76C153.236 156.798 152.446 155.181 152.431 152.333C152.912 149.609 153.922 147.34 155.473 145.589C157.016 143.846 159.142 142.561 161.953 141.87Z" fill="#AEC8A4" stroke="#622B54" stroke-width="2"/>
<path d="M270.285 90.0437C275.015 90.0437 278.85 93.8786 278.85 98.6091C278.85 103.34 275.015 107.175 270.285 107.175C265.555 107.174 261.72 103.339 261.72 98.6091C261.72 93.8788 265.555 90.0439 270.285 90.0437Z" fill="#F7ECE8" stroke="#65264D" stroke-width="4"/>
<path d="M276.448 124.881C276.59 124.881 276.955 124.977 277.334 125.381C277.692 125.762 277.91 126.266 277.91 126.783C277.91 127.3 277.692 127.804 277.334 128.185C276.955 128.589 276.59 128.685 276.448 128.685C276.371 128.685 276.164 128.652 275.91 128.334C275.651 128.011 275.426 127.471 275.426 126.783C275.426 126.096 275.651 125.556 275.91 125.232C276.164 124.914 276.371 124.881 276.448 124.881Z" fill="#F7ECE8" stroke="#65264D" stroke-width="5"/>
<rect x="36.3359" y="36.337" width="42.6616" height="25.9349" rx="8" fill="#B58DB5" stroke="#734269" stroke-width="4"/>
<line x1="36.9771" y1="43.7827" x2="80.9975" y2="43.7827" stroke="#734269" stroke-width="4"/>
<path d="M57.2267 48.6631C58.2278 48.6632 59.2811 49.1958 60.1447 50.0919C61.0533 51.0347 61.3897 51.9942 61.3898 52.3858C61.3898 52.7773 61.0533 53.7368 60.1447 54.6797C59.2811 55.5758 58.2278 56.1084 57.2267 56.1085C56.2255 56.1085 55.1723 55.5759 54.3087 54.6797C53.3999 53.7367 53.0636 52.7773 53.0636 52.3858C53.0637 51.9941 53.4 51.0348 54.3087 50.0919C55.1723 49.1958 56.2255 48.6631 57.2267 48.6631Z" fill="#FFD8F7" stroke="#734269" stroke-width="4"/>
<rect x="225.623" y="36.337" width="54.9873" height="25.9349" rx="8" fill="#F1BACE" stroke="#734269" stroke-width="4"/>
<line x1="227.145" y1="46.424" x2="282.611" y2="46.424" stroke="#734269" stroke-width="4"/>
<line x1="226.265" y1="41.1414" x2="281.73" y2="41.1414" stroke="#734269" stroke-width="4"/>
<line x1="227.145" y1="51.7067" x2="282.611" y2="51.7067" stroke="#734269" stroke-width="4"/>
<line x1="227.145" y1="56.9893" x2="279.089" y2="56.9893" stroke="#734269" stroke-width="4"/>
<rect x="301.338" y="42.5001" width="27.6947" height="21.5327" rx="8" fill="#B58DB5" stroke="#734269" stroke-width="4"/>
<path d="M315.626 50.424C315.793 50.4241 316.261 50.5777 316.814 51.3322C317.348 52.0622 317.588 52.8689 317.588 53.2668C317.588 53.6649 317.348 54.4707 316.814 55.2004C316.261 55.9551 315.793 56.1086 315.626 56.1086C315.459 56.1086 314.991 55.9551 314.439 55.2004C313.904 54.4707 313.664 53.6649 313.664 53.2668C313.664 52.8689 313.904 52.0622 314.439 51.3322C314.991 50.5777 315.459 50.424 315.626 50.424Z" fill="#FFD8F7" stroke="#734269" stroke-width="4"/>
<line x1="74.5738" y1="3.52176" x2="74.5738" y2="22.8914" stroke="#622B54" stroke-width="3"/>
<line x1="82.4974" y1="1.76086" x2="82.4974" y2="24.6522" stroke="#622B54" stroke-width="3"/>
<line x1="90.4211" y1="0.880432" x2="90.4211" y2="23.7718" stroke="#622B54" stroke-width="3"/>
<line x1="98.3448" y1="0.880432" x2="98.3448" y2="23.7718" stroke="#622B54" stroke-width="3"/>
<line x1="105.388" y1="-2.67461e-09" x2="105.388" y2="22.8914" stroke="#622B54" stroke-width="3"/>
<line x1="112.627" y1="3.53625" x2="112.431" y2="23.7863" stroke="#622B54" stroke-width="3"/>
<line x1="305.501" y1="25.0327" x2="332.794" y2="25.0327" stroke="#622B54"/>
</g>
<defs>
<filter id="filter0_d_249_183" x="0" y="0" width="360" height="267" filterUnits="userSpaceOnUse" color-interpolation-filters="sRGB">
<feFlood flood-opacity="0" result="BackgroundImageFix"/>
<feColorMatrix in="SourceAlpha" type="matrix" values="0 0 0 0 0 0 0 0 0 0 0 0 0 0 0 0 0 0 127 0" result="hardAlpha"/>
<feOffset dx="10" dy="20"/>
<feGaussianBlur stdDeviation="2"/>
<feComposite in2="hardAlpha" operator="out"/>
<feColorMatrix type="matrix" values="0 0 0 0 0 0 0 0 0 0 0 0 0 0 0 0 0 0 0.25 0"/>
<feBlend mode="normal" in2="BackgroundImageFix" result="effect1_dropShadow_249_183"/>
<feBlend mode="normal" in="SourceGraphic" in2="effect1_dropShadow_249_183" result="shape"/>
</filter>
</defs>
</svg>
