<svg width="296" height="174" viewBox="0 0 296 174" fill="none" xmlns="http://www.w3.org/2000/svg">
<g clip-path="url(#clip0_86_207)">
<rect width="296" height="192" transform="translate(0 -18)" fill="#E7EFC7"/>
<g clip-path="url(#clip1_86_207)">
<rect width="315.616" height="328.767" transform="translate(-14.4109 -86.3835)" fill="#AEC8A4"/>
<path d="M-14.4109 -86.3835C89.7425 -86.3835 193.896 -86.3835 301.205 -86.3835C301.205 22.1096 301.205 130.603 301.205 242.384C197.052 242.384 92.8986 242.384 -14.4109 242.384C-14.4109 133.89 -14.4109 25.3973 -14.4109 -86.3835Z" fill="#AEC8A4"/>
<path d="M213.664 36.5007C214.295 36.5042 214.927 36.5076 215.577 36.5112C216.259 36.5133 216.94 36.5154 217.642 36.5176C218.718 36.5259 218.718 36.5259 219.816 36.5343C220.895 36.5387 220.895 36.5387 221.997 36.5433C223.782 36.5511 225.566 36.5619 227.351 36.5754C226.944 40.2293 226.413 43.8464 225.83 47.4741C223.806 60.1493 222.71 72.38 222.933 85.2329C223.239 84.9235 223.545 84.6142 223.86 84.2954C229.118 79.2082 233.077 78.2476 240.289 78.4341C243.34 78.7423 244.602 79.1889 246.919 81.2877C251.11 86.9966 251.223 92.7609 250.707 99.6987C249.207 108.996 245.296 121.773 238.713 128.63C237.589 128.688 236.463 128.701 235.338 128.694C234.656 128.692 233.975 128.69 233.273 128.688C232.555 128.682 231.838 128.677 231.099 128.671C230.379 128.668 229.66 128.665 228.918 128.662C227.133 128.655 225.349 128.644 223.564 128.63C224.546 125.979 225.744 123.669 227.154 121.233C229.146 117.694 230.823 114.094 232.322 110.301C232.503 109.849 232.683 109.396 232.869 108.929C234.693 104.189 236.888 98.4752 234.926 93.4932C234.614 92.9846 234.614 92.9846 234.295 92.4658C230.98 92.2586 228.899 92.5519 226.089 94.4384C223.434 97.353 222.785 99.495 222.827 103.459C223.065 106.835 223.667 110.17 224.195 113.507C220.237 113.507 216.279 113.507 212.202 113.507C211.033 109.855 210.407 106.601 209.913 102.822C209.83 102.191 209.747 101.56 209.661 100.909C208.934 94.9768 208.904 89.2367 209.045 83.2603C205.504 83.2603 201.963 83.2603 198.315 83.2603C198.191 80.9059 198.068 78.5514 197.945 76.197C197.89 74.0018 197.89 74.0018 196.421 72.7398C194.212 72.4658 194.212 72.4658 192.002 72.7398C189.999 75.8691 190.359 78.9421 190.74 82.6028C192.035 87.8833 194.585 92.5535 197.052 97.3151C201.208 105.369 205.309 114.082 203.019 123.47C202.575 124.644 202.575 124.644 201.471 126.658C201.119 127.322 200.768 127.987 200.405 128.671C197.474 132.55 193.532 135.499 188.846 136.521C183.086 137.194 178.343 136.299 173.534 132.876C169.047 129.108 167.122 124.583 166.122 118.767C166.122 116.38 166.122 113.993 166.122 111.534C170.704 111.534 175.287 111.534 180.009 111.534C180.132 113.675 180.255 115.815 180.379 117.956C180.618 119.902 180.873 121.092 181.902 122.712C183.828 123.715 185.464 123.525 187.584 123.37C189.235 122.166 189.458 121.457 190.108 119.425C190.731 111.317 185.987 104.079 182.541 97.1244C181.24 94.493 179.975 91.8472 178.746 89.1781C178.47 88.5882 178.195 87.9983 177.91 87.3904C175.577 81.7284 175.076 74.8176 176.756 68.8742C178.885 64.4329 183.042 61.0078 187.478 59.2423C193.232 57.9355 198.86 58.5873 203.996 61.5617C206.026 63.016 207.047 64.0279 208.414 66.1644C208.586 64.6714 208.757 63.1782 208.927 61.685C209.009 60.9654 209.009 60.9654 209.093 60.2312C209.468 56.9275 209.82 53.622 210.16 50.3142C210.243 49.5118 210.326 48.7094 210.412 47.8827C210.579 46.2681 210.743 44.6533 210.905 43.0382C211.021 41.9242 211.021 41.9242 211.139 40.7877C211.207 40.1185 211.275 39.4493 211.345 38.7599C211.645 36.7277 211.684 36.6018 213.664 36.5007Z" fill="#E7EFC7"/>
<path d="M88.9362 31.7697C94.1267 34.8765 97.4911 39.0853 99.211 45.1233C99.6178 48.8772 99.3865 52.5222 99.211 56.3013C94.6282 56.3013 90.0455 56.3013 85.3238 56.3013C85.1697 52.8339 85.1697 52.8339 85.0156 49.3664C84.6879 47.063 84.3978 46.0601 82.7989 44.4657C80.8359 44.1675 79.6136 44.0171 77.9636 45.2465C76.1442 47.8103 76.828 51.3094 77.1178 54.3287C78.2083 60.3181 81.25 65.6437 84.0227 70.9403C88.306 79.1592 91.5787 87.538 90.3737 97.0685C88.4756 102.993 85.6835 106.936 80.4466 109.867C74.7809 112.62 70.0333 113.136 64.0592 111.164C58.0923 108.606 55.2973 104.895 52.5811 98.8895C50.8792 94.5402 51.1923 90.5736 51.2373 85.8904C56.0283 85.8904 60.8194 85.8904 65.7556 85.8904C65.8584 88.0094 65.9611 90.1284 66.0638 92.2474C66.4043 94.5567 66.9546 95.8606 68.2805 97.726C70.2268 98.7397 71.821 98.5791 73.9616 98.3835C75.8712 96.4607 76.4296 94.5075 76.6444 91.7671C76.2094 84.6311 72.7588 78.6245 69.5825 72.452C59.2482 52.3236 59.2482 52.3236 61.7685 42.8424C63.9034 37.4536 67.0475 33.8365 72.0679 31.315C77.6099 29.1063 83.5306 29.1322 88.9362 31.7697Z" fill="#E7EFC7"/>
<path d="M156.653 76.6849C161.444 76.6849 166.235 76.6849 171.172 76.6849C171.364 86.2929 171.364 86.2929 169.909 90.4932C169.586 91.4276 169.586 91.4276 169.256 92.381C168.025 95.6819 166.809 98.491 164.622 101.219C163.076 103.204 163.076 103.204 163.044 105.822C163.227 106.622 163.409 107.422 163.597 108.247C163.597 110.633 163.597 113.02 163.597 115.479C159.014 115.479 154.431 115.479 149.71 115.479C149.553 113.879 149.397 112.279 149.236 110.63C148.493 104.084 147.004 98.3353 142.135 93.7808C139.5 92.0747 136.319 91.9136 133.298 92.4658C131.086 94.0643 130.296 94.9784 129.747 97.726C130.05 99.7667 130.05 99.7667 131.207 101.589C134.431 103.744 137.769 103.458 141.504 102.986C142.357 102.574 143.202 102.14 144.028 101.671C144.653 101.671 145.278 101.671 145.922 101.671C147.271 105.751 148.046 109.185 147.816 113.507C142.118 116.097 134.634 116.748 128.603 114.863C123.931 112.523 119.655 108.293 117.867 103.194C116.673 98.0032 117.43 93.7348 120.042 89.1781C122.702 84.9524 126.728 81.8299 131.34 80.2089C138.577 78.9198 144.719 80.2108 150.79 84.4572C154.538 87.4007 154.538 87.4007 155.391 89.1781C156.431 87.0107 156.263 84.5789 156.377 82.1918C156.468 80.3745 156.559 78.5573 156.653 76.6849Z" fill="#E7EFC7"/>
<path d="M97.9485 59.5891C99.3086 59.3651 99.3086 59.3651 100.971 59.3964C101.565 59.4028 102.159 59.4091 102.771 59.4157C103.704 59.4405 103.704 59.4405 104.655 59.4658C105.282 59.4747 105.908 59.4836 106.554 59.4928C108.104 59.516 109.654 59.5485 111.204 59.5891C111.083 60.0094 110.961 60.4297 110.836 60.8627C109.876 64.1866 108.927 67.5126 108.009 70.8493C107.705 71.9504 107.705 71.9504 107.395 73.0737C106.73 75.581 106.129 78.1065 105.523 80.6302C109.064 80.6302 112.606 80.6302 116.254 80.6302C116.254 84.5359 116.254 88.4417 116.254 92.4658C112.296 92.4658 108.339 92.4658 104.261 92.4658C104.545 99.8659 104.927 107.622 110.127 113.245C112.988 115.686 115.807 116.701 119.41 117.452C119.41 123.528 119.41 129.603 119.41 135.863C110.724 134.732 103.961 131.209 98.3257 124.202C89.7524 111.538 90.1224 93.1545 92.3857 78.4521C94.7207 64.6325 94.7207 64.6325 97.9485 59.5891Z" fill="#E7EFC7"/>
</g>
</g>
<defs>
<clipPath id="clip0_86_207">
<rect width="296" height="192" fill="white" transform="translate(0 -18)"/>
</clipPath>
<clipPath id="clip1_86_207">
<rect width="315.616" height="328.767" fill="white" transform="translate(-14.4109 -86.3835)"/>
</clipPath>
</defs>
</svg>
